<svg xmlns="http://www.w3.org/2000/svg" width="183" height="25" viewBox="0 0 183 25" fill="none"> <path d="M24.8 0.279999V19H26.72V0.279999H24.8ZM29.3713 13.48C29.3713 14.584 29.6192 15.576 30.1152 16.456C30.6273 17.32 31.3153 18 32.1793 18.496C33.0433 18.992 34.0113 19.24 35.0833 19.24C36.1713 19.24 37.1393 18.992 37.9873 18.496C38.8513 18 39.5313 17.32 40.0273 16.456C40.5393 15.576 40.7953 14.584 40.7953 13.48C40.7953 12.36 40.5393 11.368 40.0273 10.504C39.5313 9.64 38.8513 8.96 37.9873 8.464C37.1393 7.968 36.1713 7.72 35.0833 7.72C34.0113 7.72 33.0433 7.968 32.1793 8.464C31.3153 8.96 30.6273 9.64 30.1152 10.504C29.6192 11.368 29.3713 12.36 29.3713 13.48ZM31.3153 13.48C31.3153 12.712 31.4753 12.032 31.7953 11.44C32.1313 10.832 32.5793 10.36 33.1393 10.024C33.7153 9.688 34.3633 9.52 35.0833 9.52C35.8033 9.52 36.4433 9.688 37.0033 10.024C37.5793 10.36 38.0273 10.832 38.3473 11.44C38.6833 12.032 38.8513 12.712 38.8513 13.48C38.8513 14.248 38.6833 14.928 38.3473 15.52C38.0273 16.112 37.5793 16.584 37.0033 16.936C36.4433 17.272 35.8033 17.44 35.0833 17.44C34.3633 17.44 33.7153 17.272 33.1393 16.936C32.5793 16.584 32.1313 16.112 31.7953 15.52C31.4753 14.928 31.3153 14.248 31.3153 13.48ZM45.2328 0.279999H43.3128V19H45.2328V0.279999ZM54.4728 13.48C54.4728 12.28 54.2248 11.256 53.7288 10.408C53.2328 9.544 52.5688 8.88 51.7368 8.416C50.9208 7.952 50.0088 7.72 49.0008 7.72C48.3128 7.72 47.6808 7.856 47.1048 8.128C46.5448 8.384 46.0568 8.76 45.6408 9.256C45.2408 9.752 44.9288 10.36 44.7048 11.08C44.4808 11.784 44.3688 12.584 44.3688 13.48C44.3688 14.376 44.4808 15.184 44.7048 15.904C44.9288 16.608 45.2408 17.208 45.6408 17.704C46.0568 18.2 46.5448 18.584 47.1048 18.856C47.6808 19.112 48.3128 19.24 49.0008 19.24C50.0088 19.24 50.9208 19.008 51.7368 18.544C52.5688 18.08 53.2328 17.416 53.7288 16.552C54.2248 15.688 54.4728 14.664 54.4728 13.48ZM52.5288 13.48C52.5288 14.328 52.3528 15.048 52.0008 15.64C51.6648 16.232 51.2088 16.68 50.6328 16.984C50.0728 17.288 49.4488 17.44 48.7608 17.44C48.3448 17.44 47.9288 17.352 47.5128 17.176C47.0968 17 46.7128 16.744 46.3608 16.408C46.0248 16.072 45.7528 15.664 45.5448 15.184C45.3368 14.688 45.2328 14.12 45.2328 13.48C45.2328 12.84 45.3368 12.28 45.5448 11.8C45.7528 11.304 46.0248 10.888 46.3608 10.552C46.7128 10.216 47.0968 9.96 47.5128 9.784C47.9288 9.608 48.3448 9.52 48.7608 9.52C49.4488 9.52 50.0728 9.672 50.6328 9.976C51.2088 10.28 51.6648 10.728 52.0008 11.32C52.3528 11.912 52.5288 12.632 52.5288 13.48ZM57.9843 15.592C57.9843 15.192 58.0803 14.848 58.2723 14.56C58.4643 14.272 58.7523 14.048 59.1363 13.888C59.5363 13.728 60.0483 13.648 60.6723 13.648C61.3443 13.648 61.9763 13.736 62.5683 13.912C63.1603 14.072 63.7363 14.344 64.2963 14.728V13.6C64.1843 13.456 63.9683 13.272 63.6483 13.048C63.3283 12.808 62.8963 12.6 62.3523 12.424C61.8243 12.232 61.1603 12.136 60.3603 12.136C59.4643 12.136 58.6883 12.288 58.0323 12.592C57.3923 12.88 56.8963 13.288 56.5443 13.816C56.2083 14.344 56.0403 14.968 56.0403 15.688C56.0403 16.44 56.2163 17.08 56.5683 17.608C56.9203 18.136 57.3843 18.544 57.9603 18.832C58.5523 19.104 59.1843 19.24 59.8563 19.24C60.4643 19.24 61.0723 19.128 61.6803 18.904C62.3043 18.68 62.8243 18.336 63.2403 17.872C63.6723 17.408 63.8883 16.824 63.8883 16.12L63.5043 14.68C63.5043 15.256 63.3603 15.768 63.0723 16.216C62.8003 16.648 62.4243 16.984 61.9443 17.224C61.4803 17.464 60.9523 17.584 60.3603 17.584C59.8963 17.584 59.4803 17.512 59.1123 17.368C58.7603 17.208 58.4803 16.976 58.2723 16.672C58.0803 16.368 57.9843 16.008 57.9843 15.592ZM57.6963 10.504C57.8723 10.376 58.1123 10.224 58.4163 10.048C58.7203 9.872 59.0883 9.72 59.5203 9.592C59.9683 9.464 60.4643 9.4 61.0083 9.4C61.3443 9.4 61.6643 9.432 61.9683 9.496C62.2723 9.56 62.5363 9.664 62.7603 9.808C63.0003 9.952 63.1843 10.152 63.3123 10.408C63.4403 10.648 63.5043 10.96 63.5043 11.344V19H65.4243V11.08C65.4243 10.36 65.2403 9.752 64.8723 9.256C64.5203 8.76 64.0163 8.384 63.3603 8.128C62.7203 7.856 61.9683 7.72 61.1043 7.72C60.0803 7.72 59.2003 7.872 58.4643 8.176C57.7443 8.48 57.1763 8.784 56.7603 9.088L57.6963 10.504ZM68.675 0.279999V19H70.595V0.279999H68.675ZM81.8576 15.616L80.3456 16.552C80.5536 16.984 80.8576 17.408 81.2576 17.824C81.6736 18.24 82.1776 18.584 82.7696 18.856C83.3616 19.112 84.0256 19.24 84.7616 19.24C85.5136 19.24 86.1696 19.096 86.7296 18.808C87.3056 18.504 87.7536 18.104 88.0736 17.608C88.3936 17.096 88.5536 16.52 88.5536 15.88C88.5536 15.224 88.3936 14.688 88.0736 14.272C87.7696 13.856 87.3536 13.504 86.8256 13.216C86.2976 12.912 85.7136 12.632 85.0736 12.376C84.6896 12.216 84.3216 12.048 83.9696 11.872C83.6176 11.696 83.3296 11.496 83.1056 11.272C82.8816 11.048 82.7696 10.792 82.7696 10.504C82.7696 10.136 82.9136 9.864 83.2016 9.688C83.4896 9.512 83.8336 9.424 84.2336 9.424C84.8096 9.424 85.3216 9.56 85.7696 9.832C86.2336 10.104 86.6176 10.448 86.9216 10.864L88.4576 9.88C88.2336 9.464 87.9216 9.096 87.5216 8.776C87.1216 8.456 86.6576 8.2 86.1296 8.008C85.6176 7.816 85.0656 7.72 84.4736 7.72C83.8816 7.72 83.3056 7.824 82.7456 8.032C82.2016 8.24 81.7536 8.56 81.4016 8.992C81.0656 9.424 80.8976 9.968 80.8976 10.624C80.8976 11.264 81.0576 11.8 81.3776 12.232C81.7136 12.648 82.1216 12.992 82.6016 13.264C83.0976 13.52 83.5856 13.744 84.0656 13.936C84.4976 14.096 84.9056 14.272 85.2896 14.464C85.6736 14.64 85.9856 14.864 86.2256 15.136C86.4816 15.392 86.6096 15.712 86.6096 16.096C86.6096 16.528 86.4496 16.872 86.1296 17.128C85.8256 17.368 85.4016 17.488 84.8576 17.488C84.4096 17.488 83.9936 17.408 83.6096 17.248C83.2416 17.072 82.9136 16.84 82.6256 16.552C82.3376 16.264 82.0816 15.952 81.8576 15.616ZM93.0013 0.279999H91.0813V19H93.0013V0.279999ZM98.1613 12.28V19H100.081V12.04C100.081 11.08 99.9213 10.28 99.6013 9.64C99.2973 9 98.8573 8.52 98.2813 8.2C97.7213 7.88 97.0573 7.72 96.2893 7.72C95.5213 7.72 94.8413 7.92 94.2493 8.32C93.6733 8.72 93.2173 9.264 92.8813 9.952C92.5453 10.624 92.3773 11.4 92.3773 12.28H93.0013C93.0013 11.752 93.1133 11.28 93.3373 10.864C93.5773 10.448 93.9053 10.12 94.3213 9.88C94.7533 9.64 95.2493 9.52 95.8093 9.52C96.3373 9.52 96.7693 9.624 97.1053 9.832C97.4573 10.04 97.7213 10.352 97.8973 10.768C98.0733 11.168 98.1613 11.672 98.1613 12.28ZM102.731 13.48C102.731 14.584 102.979 15.576 103.475 16.456C103.987 17.32 104.675 18 105.539 18.496C106.403 18.992 107.371 19.24 108.443 19.24C109.531 19.24 110.499 18.992 111.347 18.496C112.211 18 112.891 17.32 113.387 16.456C113.899 15.576 114.155 14.584 114.155 13.48C114.155 12.36 113.899 11.368 113.387 10.504C112.891 9.64 112.211 8.96 111.347 8.464C110.499 7.968 109.531 7.72 108.443 7.72C107.371 7.72 106.403 7.968 105.539 8.464C104.675 8.96 103.987 9.64 103.475 10.504C102.979 11.368 102.731 12.36 102.731 13.48ZM104.675 13.48C104.675 12.712 104.835 12.032 105.155 11.44C105.491 10.832 105.939 10.36 106.499 10.024C107.075 9.688 107.723 9.52 108.443 9.52C109.163 9.52 109.803 9.688 110.363 10.024C110.939 10.36 111.387 10.832 111.707 11.44C112.043 12.032 112.211 12.712 112.211 13.48C112.211 14.248 112.043 14.928 111.707 15.52C111.387 16.112 110.939 16.584 110.363 16.936C109.803 17.272 109.163 17.44 108.443 17.44C107.723 17.44 107.075 17.272 106.499 16.936C105.939 16.584 105.491 16.112 105.155 15.52C104.835 14.928 104.675 14.248 104.675 13.48ZM118.592 24.28V7.96H116.672V24.28H118.592ZM127.832 13.48C127.832 12.28 127.584 11.256 127.088 10.408C126.592 9.544 125.928 8.88 125.096 8.416C124.28 7.952 123.368 7.72 122.36 7.72C121.672 7.72 121.04 7.856 120.464 8.128C119.904 8.384 119.416 8.76 119 9.256C118.6 9.752 118.288 10.36 118.064 11.08C117.84 11.784 117.728 12.584 117.728 13.48C117.728 14.376 117.84 15.184 118.064 15.904C118.288 16.608 118.6 17.208 119 17.704C119.416 18.2 119.904 18.584 120.464 18.856C121.04 19.112 121.672 19.24 122.36 19.24C123.368 19.24 124.28 19.008 125.096 18.544C125.928 18.08 126.592 17.416 127.088 16.552C127.584 15.688 127.832 14.664 127.832 13.48ZM125.888 13.48C125.888 14.328 125.712 15.048 125.36 15.64C125.024 16.232 124.568 16.68 123.992 16.984C123.432 17.288 122.808 17.44 122.12 17.44C121.704 17.44 121.288 17.352 120.872 17.176C120.456 17 120.072 16.744 119.72 16.408C119.384 16.072 119.112 15.664 118.904 15.184C118.696 14.688 118.592 14.12 118.592 13.48C118.592 12.84 118.696 12.28 118.904 11.8C119.112 11.304 119.384 10.888 119.72 10.552C120.072 10.216 120.456 9.96 120.872 9.784C121.288 9.608 121.704 9.52 122.12 9.52C122.808 9.52 123.432 9.672 123.992 9.976C124.568 10.28 125.024 10.728 125.36 11.32C125.712 11.912 125.888 12.632 125.888 13.48Z" fill="#F5F7FA"/> <path fill-rule="evenodd" clip-rule="evenodd" d="M13.6953 12.16H9.81743V8.10667H18.9476C19.0785 9.62667 18.964 11.0453 18.604 12.3627C18.2604 13.68 17.6959 14.8369 16.9105 15.8333C16.1251 16.8298 15.1352 17.6067 13.9408 18.164C12.7463 18.7213 11.3719 19 9.81743 19C9.53378 19 9.25489 18.9912 8.98077 18.9735V14.2041C9.32518 14.2769 9.68588 14.3133 10.0629 14.3133C10.5537 14.3133 10.9873 14.2627 11.3637 14.1613C11.7564 14.06 12.1 13.9164 12.3945 13.7307C12.689 13.5449 12.9426 13.3169 13.1554 13.0467C13.3681 12.7764 13.5481 12.4809 13.6953 12.16ZM8.98077 4.80215C9.32903 4.72516 9.68974 4.68667 10.0629 4.68667C10.881 4.68667 11.5273 4.89778 12.0018 5.32C12.4763 5.74222 12.8608 6.232 13.1554 6.78933L18.1868 4.45867C17.6141 3.63111 16.9432 2.888 16.1742 2.22933C15.4215 1.55378 14.538 1.01333 13.5235 0.608C12.5254 0.202667 11.3719 0 10.0629 0C9.69523 0 9.33453 0.0143125 8.98077 0.0429376V4.80215ZM4.97619 1.10852C4.2047 1.48274 3.50317 1.94924 2.8716 2.508C1.97167 3.31867 1.26808 4.30667 0.760851 5.472C0.253617 6.62044 0 7.92089 0 9.37333C0 10.8258 0.237255 12.1431 0.711764 13.3253C1.20264 14.5076 1.88167 15.5209 2.74888 16.3653C3.40548 16.9929 4.14791 17.5131 4.97619 17.9261V1.10852Z" fill="#F5F7FA"/> </svg>