<svg xmlns="http://www.w3.org/2000/svg" width="183" height="25" fill="none"><path d="M24.8.28V19h1.92V.28H24.8zm4.571 13.2c0 1.104.248 2.096.744 2.976a5.61 5.61 0 002.064 2.04c.864.496 1.832.744 2.904.744 1.088 0 2.056-.248 2.904-.744a5.429 5.429 0 002.04-2.04c.512-.88.768-1.872.768-2.976 0-1.12-.256-2.112-.768-2.976a5.429 5.429 0 00-2.04-2.04c-.848-.496-1.816-.744-2.904-.744-1.072 0-2.04.248-2.904.744a5.61 5.61 0 00-2.064 2.04c-.496.864-.744 1.856-.744 2.976zm1.944 0c0-.768.16-1.448.48-2.04a3.697 3.697 0 011.344-1.416c.576-.336 1.224-.504 1.944-.504s1.36.168 1.92.504a3.476 3.476 0 011.344 1.416c.336.592.504 1.272.504 2.04s-.168 1.448-.504 2.04a3.686 3.686 0 01-1.344 1.416c-.56.336-1.2.504-1.92.504s-1.368-.168-1.944-.504a3.938 3.938 0 01-1.344-1.416c-.32-.592-.48-1.272-.48-2.04zM45.233.28h-1.92V19h1.92V.28zm9.24 13.2c0-1.2-.248-2.224-.744-3.072a5.18 5.18 0 00-1.992-1.992C50.92 7.952 50.009 7.72 49 7.72c-.688 0-1.32.136-1.896.408a4.147 4.147 0 00-1.464 1.128c-.4.496-.712 1.104-.936 1.824-.224.704-.336 1.504-.336 2.4 0 .896.112 1.704.336 2.424.224.704.536 1.304.936 1.8.416.496.904.88 1.464 1.152A4.616 4.616 0 0049 19.24c1.008 0 1.92-.232 2.736-.696a5.18 5.18 0 001.992-1.992c.496-.864.744-1.888.744-3.072zm-1.944 0c0 .848-.176 1.568-.528 2.16a3.35 3.35 0 01-1.368 1.344 3.86 3.86 0 01-1.872.456 3.18 3.18 0 01-1.248-.264 3.82 3.82 0 01-1.152-.768 3.903 3.903 0 01-.816-1.224c-.208-.496-.312-1.064-.312-1.704 0-.64.104-1.2.312-1.68a3.84 3.84 0 01.816-1.248 3.82 3.82 0 011.152-.768 3.18 3.18 0 011.248-.264 3.86 3.86 0 011.872.456A3.35 3.35 0 0152 11.32c.352.592.528 1.312.528 2.16zm5.455 2.112c0-.4.096-.744.288-1.032.192-.288.48-.512.864-.672.4-.16.912-.24 1.536-.24.672 0 1.304.088 1.896.264.592.16 1.168.432 1.728.816V13.6c-.112-.144-.328-.328-.648-.552-.32-.24-.752-.448-1.296-.624-.528-.192-1.192-.288-1.992-.288-.896 0-1.672.152-2.328.456-.64.288-1.136.696-1.488 1.224-.336.528-.504 1.152-.504 1.872 0 .752.176 1.392.528 1.92.352.528.816.936 1.392 1.224a4.487 4.487 0 001.896.408c.608 0 1.216-.112 1.824-.336a3.761 3.761 0 001.56-1.032c.432-.464.648-1.048.648-1.752l-.384-1.44a2.778 2.778 0 01-1.56 2.544c-.464.24-.992.36-1.584.36-.464 0-.88-.072-1.248-.216a1.994 1.994 0 01-.84-.696c-.192-.304-.288-.664-.288-1.08zm-.288-5.088c.176-.128.416-.28.72-.456a5.099 5.099 0 011.104-.456 5.407 5.407 0 011.488-.192c.336 0 .656.032.96.096.304.064.568.168.792.312.24.144.424.344.552.6.128.24.192.552.192.936V19h1.92v-7.92c0-.72-.184-1.328-.552-1.824-.352-.496-.856-.872-1.512-1.128-.64-.272-1.392-.408-2.256-.408-1.024 0-1.904.152-2.64.456-.72.304-1.288.608-1.704.912l.936 1.416zM68.675.28V19h1.92V.28h-1.92zm13.183 15.336l-1.512.936c.208.432.512.856.912 1.272.416.416.92.76 1.512 1.032.592.256 1.256.384 1.992.384.752 0 1.408-.144 1.968-.432.576-.304 1.024-.704 1.344-1.2.32-.512.48-1.088.48-1.728 0-.656-.16-1.192-.48-1.608-.304-.416-.72-.768-1.248-1.056a13.726 13.726 0 00-1.752-.84c-.384-.16-.752-.328-1.104-.504a3.291 3.291 0 01-.864-.6 1.057 1.057 0 01-.336-.768c0-.368.144-.64.432-.816.288-.176.632-.264 1.032-.264a2.9 2.9 0 011.536.408c.464.272.848.616 1.152 1.032l1.536-.984a3.592 3.592 0 00-.936-1.104c-.4-.32-.864-.576-1.392-.768a4.678 4.678 0 00-1.656-.288c-.592 0-1.168.104-1.728.312a3.149 3.149 0 00-1.344.96c-.336.432-.504.976-.504 1.632 0 .64.16 1.176.48 1.608.336.416.744.76 1.224 1.032.496.256.984.48 1.464.672.432.16.84.336 1.224.528.384.176.696.4.936.672.256.256.384.576.384.96 0 .432-.16.776-.48 1.032-.304.24-.728.36-1.272.36-.448 0-.864-.08-1.248-.24a3.544 3.544 0 01-.984-.696 6.129 6.129 0 01-.768-.936zM93 .28h-1.92V19h1.92V.28zm5.16 12V19h1.92v-6.96c0-.96-.16-1.76-.48-2.4-.304-.64-.744-1.12-1.32-1.44-.56-.32-1.224-.48-1.992-.48s-1.448.2-2.04.6c-.576.4-1.032.944-1.368 1.632-.336.672-.504 1.448-.504 2.328h.624c0-.528.112-1 .336-1.416a2.64 2.64 0 01.984-.984c.432-.24.928-.36 1.488-.36.528 0 .96.104 1.296.312.352.208.616.52.792.936.176.4.264.904.264 1.512zm4.57 1.2c0 1.104.248 2.096.744 2.976a5.609 5.609 0 002.064 2.04c.864.496 1.832.744 2.904.744 1.088 0 2.056-.248 2.904-.744a5.429 5.429 0 002.04-2.04c.512-.88.768-1.872.768-2.976 0-1.12-.256-2.112-.768-2.976a5.429 5.429 0 00-2.04-2.04c-.848-.496-1.816-.744-2.904-.744-1.072 0-2.04.248-2.904.744a5.609 5.609 0 00-2.064 2.04c-.496.864-.744 1.856-.744 2.976zm1.944 0c0-.768.16-1.448.48-2.04a3.697 3.697 0 011.344-1.416c.576-.336 1.224-.504 1.944-.504s1.36.168 1.92.504a3.476 3.476 0 011.344 1.416c.336.592.504 1.272.504 2.04s-.168 1.448-.504 2.04a3.686 3.686 0 01-1.344 1.416c-.56.336-1.2.504-1.92.504s-1.368-.168-1.944-.504a3.938 3.938 0 01-1.344-1.416c-.32-.592-.48-1.272-.48-2.04zm13.917 10.8V7.96h-1.92v16.32h1.92zm9.24-10.8c0-1.2-.248-2.224-.744-3.072a5.18 5.18 0 00-1.992-1.992c-.816-.464-1.728-.696-2.736-.696-.688 0-1.32.136-1.896.408A4.147 4.147 0 00119 9.256c-.4.496-.712 1.104-.936 1.824-.224.704-.336 1.504-.336 2.4 0 .896.112 1.704.336 2.424.224.704.536 1.304.936 1.8.416.496.904.88 1.464 1.152a4.616 4.616 0 001.896.384c1.008 0 1.92-.232 2.736-.696a5.18 5.18 0 001.992-1.992c.496-.864.744-1.888.744-3.072zm-1.944 0c0 .848-.176 1.568-.528 2.16a3.35 3.35 0 01-1.368 1.344 3.86 3.86 0 01-1.872.456 3.18 3.18 0 01-1.248-.264 3.82 3.82 0 01-1.152-.768 3.903 3.903 0 01-.816-1.224c-.208-.496-.312-1.064-.312-1.704 0-.64.104-1.2.312-1.68a3.84 3.84 0 01.816-1.248 3.82 3.82 0 011.152-.768 3.18 3.18 0 011.248-.264 3.86 3.86 0 011.872.456 3.35 3.35 0 011.368 1.344c.352.592.528 1.312.528 2.16z" fill="#F5F7FA"/><path fill-rule="evenodd" clip-rule="evenodd" d="M13.695 12.16H9.817V8.107h9.13c.131 1.52.017 2.938-.343 4.256-.344 1.317-.908 2.474-1.694 3.47a8.055 8.055 0 01-2.97 2.331c-1.194.557-2.568.836-4.123.836-.283 0-.562-.009-.836-.026v-4.77c.344.073.705.11 1.082.11.49 0 .924-.051 1.3-.153a3.61 3.61 0 001.032-.43c.294-.186.548-.414.76-.684.213-.27.393-.566.54-.887zM8.981 4.802a4.999 4.999 0 011.082-.115c.818 0 1.464.21 1.939.633.474.422.859.912 1.153 1.47l5.032-2.331a11.663 11.663 0 00-2.013-2.23 8.832 8.832 0 00-2.65-1.621C12.524.203 11.372 0 10.063 0c-.368 0-.728.014-1.082.043v4.76zM4.976 1.11a9.255 9.255 0 00-2.104 1.399A8.494 8.494 0 00.76 5.472C.254 6.62 0 7.921 0 9.373c0 1.453.237 2.77.712 3.952a9.007 9.007 0 002.037 3.04 9.041 9.041 0 002.227 1.561V1.11z" fill="#F5F7FA"/></svg>